<?xml version="1.0" encoding="utf-8"?>
<!-- Generator: Adobe Illustrator 25.2.0, SVG Export Plug-In . SVG Version: 6.00 Build 0)  -->
<svg version="1.1" xmlns="http://www.w3.org/2000/svg" xmlns:xlink="http://www.w3.org/1999/xlink" x="0px" y="0px"
	 viewBox="0 0 525 360" style="enable-background:new 0 0 525 360;" xml:space="preserve">
<style type="text/css">
	.st0{fill:#FAFAFA;}
	.st1{fill:#FFFFFF;}
	.st2{fill:#44A6F1;}
	.st3{fill:url(#SVGID_1_);}
	.st4{fill:#6D6E71;}
</style>
<g id="BG">
</g>
<g id="Layer_1">
	<g>
		<g>
			<path class="st0" d="M373.85,104.14v64.17c0,5.59-4.4,10.12-9.86,10.12h-51.12c-7.97,0-15.32-4.4-19.25-11.53
				c-14.93-27.15-36.65-49.8-62.77-65.55c-7.93-4.78-12.9-13.44-12.9-22.91v-50.3c0-5.58,4.43-10.14,9.86-10.14h62.34
				c5.45,0,9.86,4.56,9.86,10.14V94h63.99C369.44,94,373.85,98.54,373.85,104.14z"/>
			<path class="st0" d="M217.95,187.66v53.01c0,7.4,6,13.4,13.4,13.4h57.23c7.4,0,13.4-6,13.4-13.4v-32.5
				c0-21.96-23.11-52.35-34.35-65.08c-27.67-31.36-55.36-48.67-109.77-48.67h-20.88c18.24,34.45,64.64,53.41,94.66,54.54
				c-33.83,0.42-79.05-17.13-97.94-51.89c1.18,48.83,34.9,77.87,84.25,81.38c29.52,2.1,58.24,1.25,68.29,16.14
				c5.08,7.53,4.59,14.29,4.59,23.51l-0.02,22.58c0,1.23-1,2.23-2.23,2.23h-57.23c-1.23,0-2.23-1-2.23-2.23c0,0,0-27.67,0-37.46
				C229.11,188.89,217.95,187.66,217.95,187.66z"/>
		</g>
		<g>
			<path class="st1" d="M120.95,276.02c6.2,0,10.95,1.22,14.24,3.65c3.3,2.43,4.95,5.9,4.95,10.41c0,3.57-0.68,6.61-2.05,9.11
				c-1.36,2.5-3.25,4.55-5.66,6.14c-2.41,1.59-5.29,2.74-8.64,3.46c-3.35,0.72-7.03,1.08-11.05,1.08h-4.02l-4.35,18.22h-9.39
				l12.12-50.8c2.38-0.49,4.76-0.83,7.14-1C116.64,276.11,118.87,276.02,120.95,276.02z M120.06,283.91c-0.94,0-1.84,0.03-2.68,0.07
				c-0.84,0.05-1.69,0.13-2.53,0.22l-4.17,17.78h3.78c2.07,0,4.07-0.17,6-0.52c1.93-0.35,3.63-0.93,5.11-1.75
				c1.48-0.82,2.67-1.93,3.56-3.35c0.89-1.41,1.33-3.21,1.33-5.39c0-2.53-0.93-4.34-2.79-5.43
				C125.82,284.45,123.28,283.91,120.06,283.91z"/>
			<path class="st1" d="M139.62,328.09l13.46-56.23l9.37-1.49l-4.58,19.12c0.99-0.25,2.07-0.48,3.23-0.71
				c1.16-0.22,2.31-0.33,3.45-0.33c2.18,0,4.05,0.31,5.61,0.93c1.56,0.62,2.85,1.48,3.86,2.57c1.01,1.09,1.76,2.41,2.23,3.94
				c0.47,1.54,0.71,3.2,0.71,4.98c0,2.13-0.3,4.39-0.89,6.77l-4.91,20.46h-8.99l4.68-19.49c0.25-1.14,0.5-2.31,0.74-3.5
				c0.25-1.19,0.37-2.31,0.37-3.35c0-1.64-0.43-3.01-1.3-4.13c-0.87-1.12-2.52-1.67-4.95-1.67c-0.99,0-1.99,0.09-2.98,0.26
				c-0.99,0.17-1.89,0.38-2.68,0.63l-7.4,31.24H139.62z"/>
			<path class="st1" d="M215.49,312.99c-0.15,0.55-0.3,1.44-0.45,2.68c-0.15,1.24-0.22,2.41-0.22,3.5c0,1.44,0.12,2.84,0.37,4.2
				c0.25,1.36,0.64,2.74,1.19,4.13l-8.03,1.19c-0.59-1.19-1.07-2.45-1.41-3.79c-1.24,1.09-2.77,2.07-4.57,2.94
				c-1.81,0.87-3.86,1.3-6.14,1.3c-2.33,0-4.33-0.38-5.99-1.15c-1.66-0.77-3.01-1.83-4.05-3.2c-1.04-1.36-1.81-2.96-2.31-4.8
				c-0.5-1.83-0.74-3.82-0.74-5.95c0-3.62,0.64-6.99,1.93-10.12c1.29-3.12,3.09-5.83,5.39-8.11c2.31-2.28,5.05-4.08,8.22-5.39
				c3.17-1.31,6.64-1.97,10.41-1.97c1.93,0,3.88,0.16,5.84,0.48c1.96,0.32,3.93,0.93,5.91,1.82L215.49,312.99z M210.6,296.18
				c-0.94-0.2-2.01-0.3-3.2-0.3c-2.23,0-4.29,0.48-6.18,1.45c-1.89,0.97-3.51,2.26-4.88,3.87c-1.36,1.61-2.42,3.46-3.16,5.54
				c-0.74,2.08-1.12,4.27-1.12,6.55c0,1.14,0.1,2.21,0.3,3.2c0.2,0.99,0.53,1.86,1,2.6c0.47,0.74,1.1,1.34,1.9,1.79
				c0.79,0.45,1.81,0.67,3.05,0.67c1.59,0,2.99-0.33,4.2-1c1.21-0.67,2.34-1.57,3.38-2.71c0.05-1.29,0.16-2.5,0.33-3.65
				c0.17-1.14,0.41-2.28,0.71-3.42L210.6,296.18z"/>
			<path class="st1" d="M251.79,297.15c-0.99-0.35-2.07-0.62-3.21-0.82c-1.14-0.2-2.49-0.3-4.03-0.3c-0.85,0-1.74,0.06-2.69,0.19
				c-0.95,0.12-1.74,0.29-2.39,0.48L232,328.09h-9l8.93-37.12c2.08-0.69,4.34-1.3,6.77-1.82c2.43-0.52,5.06-0.78,7.88-0.78
				c0.6,0,1.26,0.04,2.01,0.11c0.74,0.07,1.48,0.16,2.19,0.26c0.72,0.1,1.39,0.22,2.01,0.37c0.62,0.15,1.15,0.32,1.6,0.52
				L251.79,297.15z"/>
			<path class="st1" d="M261.61,290.82c1.98-0.59,4.21-1.15,6.69-1.67c2.48-0.52,5.21-0.78,8.18-0.78c2.23,0,4.1,0.32,5.62,0.97
				c1.51,0.64,2.79,1.56,3.83,2.75c1.44-0.84,3.19-1.67,5.24-2.49c2.06-0.82,4.4-1.23,7.03-1.23c2.28,0,4.21,0.32,5.8,0.97
				c1.59,0.64,2.88,1.54,3.87,2.68c0.99,1.14,1.71,2.49,2.16,4.05c0.45,1.56,0.67,3.26,0.67,5.1c0,2.03-0.27,4.19-0.82,6.47
				l-4.91,20.46h-8.99l4.6-19.49c0.25-0.94,0.48-1.97,0.71-3.09c0.22-1.12,0.33-2.24,0.33-3.38c0-0.79-0.09-1.57-0.26-2.34
				c-0.17-0.77-0.48-1.42-0.93-1.97c-0.45-0.54-1.05-0.99-1.82-1.34c-0.77-0.35-1.75-0.52-2.94-0.52c-1.29,0-2.55,0.25-3.79,0.74
				c-1.24,0.5-2.28,1.02-3.12,1.56c0.2,0.94,0.3,1.96,0.3,3.05c0,0.99-0.07,2.03-0.22,3.12c-0.15,1.09-0.35,2.16-0.6,3.2
				l-4.92,20.46h-8.99l4.61-19.49c0.25-0.89,0.48-1.92,0.71-3.09c0.22-1.16,0.33-2.32,0.33-3.46c0-1.64-0.38-3.06-1.15-4.28
				c-0.77-1.21-2.22-1.82-4.35-1.82c-0.99,0-1.93,0.06-2.83,0.19c-0.89,0.12-1.71,0.29-2.45,0.48l-7.46,31.46h-9.05L261.61,290.82z"
				/>
			<path class="st1" d="M349.3,312.99c-0.15,0.55-0.3,1.44-0.45,2.68c-0.15,1.24-0.22,2.41-0.22,3.5c0,1.44,0.12,2.84,0.37,4.2
				c0.25,1.36,0.64,2.74,1.19,4.13l-8.03,1.19c-0.6-1.19-1.07-2.45-1.41-3.79c-1.24,1.09-2.76,2.07-4.57,2.94
				c-1.81,0.87-3.86,1.3-6.14,1.3c-2.33,0-4.33-0.38-5.99-1.15c-1.66-0.77-3.01-1.83-4.05-3.2c-1.04-1.36-1.81-2.96-2.31-4.8
				c-0.5-1.83-0.74-3.82-0.74-5.95c0-3.62,0.64-6.99,1.93-10.12c1.29-3.12,3.09-5.83,5.39-8.11c2.31-2.28,5.04-4.08,8.22-5.39
				c3.17-1.31,6.64-1.97,10.41-1.97c1.93,0,3.88,0.16,5.84,0.48c1.96,0.32,3.93,0.93,5.91,1.82L349.3,312.99z M344.41,296.18
				c-0.94-0.2-2.01-0.3-3.2-0.3c-2.23,0-4.29,0.48-6.18,1.45c-1.89,0.97-3.51,2.26-4.88,3.87c-1.36,1.61-2.42,3.46-3.16,5.54
				c-0.75,2.08-1.12,4.27-1.12,6.55c0,1.14,0.1,2.21,0.3,3.2c0.2,0.99,0.53,1.86,1,2.6c0.47,0.74,1.1,1.34,1.9,1.79
				c0.79,0.45,1.81,0.67,3.05,0.67c1.59,0,2.99-0.33,4.2-1c1.21-0.67,2.34-1.57,3.38-2.71c0.05-1.29,0.16-2.5,0.33-3.65
				c0.17-1.14,0.41-2.28,0.71-3.42L344.41,296.18z"/>
			<path class="st1" d="M358.6,313.36c0-3.37,0.53-6.58,1.6-9.63c1.07-3.05,2.59-5.73,4.57-8.03c1.98-2.31,4.41-4.13,7.29-5.47
				c2.88-1.34,6.15-2.01,9.82-2.01c1.93,0,3.71,0.16,5.32,0.48c1.61,0.32,3.14,0.81,4.57,1.45l-3.2,7.22
				c-0.89-0.4-1.89-0.74-2.98-1.04c-1.09-0.3-2.43-0.45-4.02-0.45c-2.13,0-4.05,0.43-5.76,1.3c-1.71,0.87-3.16,2.05-4.35,3.53
				c-1.19,1.49-2.11,3.25-2.75,5.28c-0.65,2.03-0.97,4.19-0.97,6.47c0,1.29,0.14,2.47,0.41,3.53c0.27,1.07,0.72,2.01,1.34,2.83
				c0.62,0.82,1.48,1.45,2.57,1.9c1.09,0.45,2.45,0.67,4.09,0.67c1.69,0,3.31-0.22,4.87-0.67c1.56-0.45,2.76-0.89,3.61-1.34
				l0.74,7.36c-1.14,0.55-2.65,1.08-4.54,1.6c-1.89,0.52-4.02,0.78-6.4,0.78c-2.73,0-5.08-0.41-7.07-1.23
				c-1.98-0.82-3.63-1.93-4.95-3.35c-1.31-1.41-2.28-3.07-2.9-4.98C358.91,317.67,358.6,315.59,358.6,313.36z"/>
			<path class="st1" d="M430.01,289.19c-0.99,2.83-2.09,5.76-3.28,8.81c-1.19,3.05-2.52,6.11-3.99,9.19
				c-1.47,3.08-3.05,6.14-4.74,9.19c-1.69,3.05-3.5,6.01-5.44,8.89c-1.44,2.18-2.93,4.28-4.47,6.29c-1.54,2.01-3.21,3.78-5.03,5.32
				c-1.81,1.54-3.81,2.78-5.99,3.72c-2.18,0.94-4.67,1.41-7.45,1.41c-1.54,0-2.92-0.17-4.13-0.52c-1.22-0.35-2.25-0.74-3.09-1.19
				l2.9-7.22c0.69,0.4,1.48,0.72,2.34,0.97c0.87,0.25,1.82,0.37,2.87,0.37c2.33,0,4.38-0.61,6.14-1.82c1.76-1.22,3.36-2.86,4.8-4.95
				c-1.59-5.5-2.93-11.48-4.02-17.93c-1.09-6.45-1.81-13.29-2.16-20.53h9.08c0.05,2.08,0.16,4.39,0.34,6.92
				c0.18,2.53,0.4,5.12,0.68,7.77c0.28,2.65,0.61,5.27,1.01,7.85c0.4,2.58,0.85,4.96,1.35,7.14c1.49-2.38,2.88-4.88,4.18-7.51
				c1.29-2.63,2.49-5.24,3.58-7.85c1.09-2.6,2.05-5.13,2.87-7.59c0.82-2.45,1.53-4.7,2.13-6.73H430.01z"/>
		</g>
	</g>
</g>
</svg>
